<svg id="visual" viewBox="0 0 1280 920" width="1280" height="920" xmlns="http://www.w3.org/2000/svg" xmlns:xlink="http://www.w3.org/1999/xlink" version="1.1"><g stroke-width="1" stroke-linejoin="bevel"><path d="M652 493L667 616.3L815 477Z" fill="#1a658c" stroke="#1a658c"></path><path d="M667 616.3L833 630.3L815 477Z" fill="#12597f" stroke="#12597f"></path><path d="M931 597.3L928 486L815 477Z" fill="#001634" stroke="#001634"></path><path d="M833 630.3L931 597.3L815 477Z" fill="#004266" stroke="#004266"></path><path d="M483 640.3L610 736.7L667 616.3Z" fill="#001634" stroke="#001634"></path><path d="M667 616.3L805 803.7L833 630.3Z" fill="#297ea6" stroke="#297ea6"></path><path d="M833 630.3L929 790.7L931 597.3Z" fill="#084d73" stroke="#084d73"></path><path d="M928 486L839 324.7L815 477Z" fill="#002040" stroke="#002040"></path><path d="M815 477L839 324.7L652 493Z" fill="#001634" stroke="#001634"></path><path d="M612 275.7L508 446L652 493Z" fill="#003659" stroke="#003659"></path><path d="M652 493L483 640.3L667 616.3Z" fill="#001634" stroke="#001634"></path><path d="M610 736.7L805 803.7L667 616.3Z" fill="#001634" stroke="#001634"></path><path d="M508 446L483 640.3L652 493Z" fill="#000000" stroke="#000000"></path><path d="M839 324.7L612 275.7L652 493Z" fill="#000000" stroke="#000000"></path><path d="M805 803.7L929 790.7L833 630.3Z" fill="#084d73" stroke="#084d73"></path><path d="M1109 444L990 329.7L928 486Z" fill="#004266" stroke="#004266"></path><path d="M928 486L990 329.7L839 324.7Z" fill="#217199" stroke="#217199"></path><path d="M839 324.7L662 150.3L612 275.7Z" fill="#217199" stroke="#217199"></path><path d="M1114 624.3L928 486L931 597.3Z" fill="#297ea6" stroke="#297ea6"></path><path d="M483 640.3L517 792.7L610 736.7Z" fill="#297ea6" stroke="#297ea6"></path><path d="M645 920L764 920L805 803.7Z" fill="#004266" stroke="#004266"></path><path d="M612 275.7L453 306.7L508 446Z" fill="#1a658c" stroke="#1a658c"></path><path d="M292 598.3L337 734.7L483 640.3Z" fill="#12597f" stroke="#12597f"></path><path d="M805 803.7L949 920L929 790.7Z" fill="#002b4d" stroke="#002b4d"></path><path d="M645 920L805 803.7L610 736.7Z" fill="#003659" stroke="#003659"></path><path d="M929 790.7L1114 624.3L931 597.3Z" fill="#297ea6" stroke="#297ea6"></path><path d="M1114 624.3L1109 444L928 486Z" fill="#084d73" stroke="#084d73"></path><path d="M517 792.7L645 920L610 736.7Z" fill="#297ea6" stroke="#297ea6"></path><path d="M778 121.3L662 150.3L839 324.7Z" fill="#1a658c" stroke="#1a658c"></path><path d="M612 275.7L496 166.3L453 306.7Z" fill="#1a658c" stroke="#1a658c"></path><path d="M1096 169.3L947 176.3L990 329.7Z" fill="#001634" stroke="#001634"></path><path d="M990 329.7L947 176.3L839 324.7Z" fill="#002b4d" stroke="#002b4d"></path><path d="M947 176.3L778 121.3L839 324.7Z" fill="#1a658c" stroke="#1a658c"></path><path d="M764 920L949 920L805 803.7Z" fill="#1a658c" stroke="#1a658c"></path><path d="M929 790.7L1133 780.7L1114 624.3Z" fill="#002040" stroke="#002040"></path><path d="M292 598.3L483 640.3L288 491Z" fill="#003659" stroke="#003659"></path><path d="M483 640.3L337 734.7L517 792.7Z" fill="#004266" stroke="#004266"></path><path d="M517 792.7L484 920L645 920Z" fill="#002b4d" stroke="#002b4d"></path><path d="M494 0L496 166.3L662 150.3Z" fill="#217199" stroke="#217199"></path><path d="M662 150.3L496 166.3L612 275.7Z" fill="#084d73" stroke="#084d73"></path><path d="M288 491L483 640.3L508 446Z" fill="#002b4d" stroke="#002b4d"></path><path d="M288 491L508 446L339 325.7Z" fill="#000000" stroke="#000000"></path><path d="M358 920L484 920L517 792.7Z" fill="#002b4d" stroke="#002b4d"></path><path d="M339 325.7L508 446L453 306.7Z" fill="#297ea6" stroke="#297ea6"></path><path d="M303 187.3L339 325.7L453 306.7Z" fill="#002040" stroke="#002040"></path><path d="M949 920L1133 780.7L929 790.7Z" fill="#004266" stroke="#004266"></path><path d="M1114 624.3L1280 596.3L1109 444Z" fill="#297ea6" stroke="#297ea6"></path><path d="M1280 342.7L1116 276.7L1109 444Z" fill="#297ea6" stroke="#297ea6"></path><path d="M1109 444L1116 276.7L990 329.7Z" fill="#297ea6" stroke="#297ea6"></path><path d="M828 0L651 0L778 121.3Z" fill="#297ea6" stroke="#297ea6"></path><path d="M1116 276.7L1096 169.3L990 329.7Z" fill="#217199" stroke="#217199"></path><path d="M180 920L358 920L337 734.7Z" fill="#297ea6" stroke="#297ea6"></path><path d="M337 734.7L358 920L517 792.7Z" fill="#1a658c" stroke="#1a658c"></path><path d="M1133 780.7L1280 596.3L1114 624.3Z" fill="#217199" stroke="#217199"></path><path d="M1116 276.7L1280 177.3L1096 169.3Z" fill="#002040" stroke="#002040"></path><path d="M949 920L1138 920L1133 780.7Z" fill="#004266" stroke="#004266"></path><path d="M1133 780.7L1280 798.7L1280 596.3Z" fill="#004266" stroke="#004266"></path><path d="M778 121.3L651 0L662 150.3Z" fill="#002b4d" stroke="#002b4d"></path><path d="M496 166.3L303 187.3L453 306.7Z" fill="#217199" stroke="#217199"></path><path d="M828 0L778 121.3L947 176.3Z" fill="#004266" stroke="#004266"></path><path d="M958 0L828 0L947 176.3Z" fill="#084d73" stroke="#084d73"></path><path d="M1280 596.3L1280 428L1109 444Z" fill="#12597f" stroke="#12597f"></path><path d="M346 0L303 187.3L496 166.3Z" fill="#12597f" stroke="#12597f"></path><path d="M339 325.7L142 482L288 491Z" fill="#000000" stroke="#000000"></path><path d="M1280 428L1280 342.7L1109 444Z" fill="#12597f" stroke="#12597f"></path><path d="M1150 0L958 0L1096 169.3Z" fill="#1a658c" stroke="#1a658c"></path><path d="M1096 169.3L958 0L947 176.3Z" fill="#002040" stroke="#002040"></path><path d="M1138 920L1280 798.7L1133 780.7Z" fill="#002b4d" stroke="#002b4d"></path><path d="M651 0L494 0L662 150.3Z" fill="#002040" stroke="#002040"></path><path d="M139 266.7L142 482L339 325.7Z" fill="#1a658c" stroke="#1a658c"></path><path d="M288 491L142 482L292 598.3Z" fill="#001634" stroke="#001634"></path><path d="M292 598.3L144 633.3L337 734.7Z" fill="#003659" stroke="#003659"></path><path d="M142 482L144 633.3L292 598.3Z" fill="#12597f" stroke="#12597f"></path><path d="M0 747.7L132 754.7L144 633.3Z" fill="#004266" stroke="#004266"></path><path d="M144 633.3L132 754.7L337 734.7Z" fill="#084d73" stroke="#084d73"></path><path d="M1280 342.7L1280 177.3L1116 276.7Z" fill="#217199" stroke="#217199"></path><path d="M1138 920L1280 920L1280 798.7Z" fill="#003659" stroke="#003659"></path><path d="M303 187.3L139 266.7L339 325.7Z" fill="#297ea6" stroke="#297ea6"></path><path d="M142 482L0 577.3L144 633.3Z" fill="#001634" stroke="#001634"></path><path d="M179 165.3L139 266.7L303 187.3Z" fill="#003659" stroke="#003659"></path><path d="M494 0L346 0L496 166.3Z" fill="#002b4d" stroke="#002b4d"></path><path d="M132 754.7L180 920L337 734.7Z" fill="#004266" stroke="#004266"></path><path d="M346 0L179 165.3L303 187.3Z" fill="#003659" stroke="#003659"></path><path d="M1280 177.3L1150 0L1096 169.3Z" fill="#1a658c" stroke="#1a658c"></path><path d="M0 469L0 577.3L142 482Z" fill="#003659" stroke="#003659"></path><path d="M132 754.7L0 920L180 920Z" fill="#004266" stroke="#004266"></path><path d="M0 469L142 482L0 344.7Z" fill="#1a658c" stroke="#1a658c"></path><path d="M0 344.7L142 482L139 266.7Z" fill="#1a658c" stroke="#1a658c"></path><path d="M0 121.3L0 344.7L139 266.7Z" fill="#297ea6" stroke="#297ea6"></path><path d="M0 577.3L0 747.7L144 633.3Z" fill="#003659" stroke="#003659"></path><path d="M1280 177.3L1280 0L1150 0Z" fill="#004266" stroke="#004266"></path><path d="M346 0L135 0L179 165.3Z" fill="#003659" stroke="#003659"></path><path d="M179 165.3L0 121.3L139 266.7Z" fill="#297ea6" stroke="#297ea6"></path><path d="M0 747.7L0 920L132 754.7Z" fill="#002040" stroke="#002040"></path><path d="M135 0L0 121.3L179 165.3Z" fill="#002040" stroke="#002040"></path><path d="M135 0L0 0L0 121.3Z" fill="#003659" stroke="#003659"></path></g></svg>